<svg width="328" height="328" viewBox="0 0 328 328" fill="none" xmlns="http://www.w3.org/2000/svg">
<rect x="7" y="7" width="314" height="314" rx="58" fill="#4FBB9B"/>
<g filter="url(#filter0_d_276_67228)">
<path d="M71.7203 214.886C68.1479 216.145 64.9548 216.476 62.1413 215.877C59.3369 215.259 57.0221 213.841 55.1967 211.625C53.3664 209.395 52.1355 206.495 51.5042 202.926C50.8729 199.357 50.995 195.989 51.8705 192.821C52.7409 189.638 54.3201 186.849 56.608 184.452C58.8909 182.041 61.8257 180.203 65.4125 178.939C68.9707 177.685 72.1519 177.367 74.9563 177.985C77.7698 178.584 80.0918 179.998 81.9222 182.229C83.7618 184.44 84.9973 187.33 85.6286 190.899C86.2599 194.468 86.1332 197.846 85.2485 201.034C84.3587 204.207 82.7724 206.999 80.4895 209.41C78.2159 211.802 75.2928 213.627 71.7203 214.886ZM70.0956 205.627C71.1245 205.264 71.9421 204.599 72.5485 203.63C73.1692 202.656 73.5605 201.442 73.7225 199.987C73.8988 198.527 73.8277 196.89 73.5091 195.074C73.1855 193.244 72.7071 191.75 72.0739 190.592C71.4356 189.419 70.6838 188.608 69.8183 188.158C68.9529 187.708 68.0057 187.664 66.9768 188.027C65.9479 188.389 65.1231 189.057 64.5025 190.031C63.8818 191.005 63.4904 192.219 63.3284 193.674C63.1614 195.115 63.2397 196.75 63.5633 198.58C63.8819 200.395 64.3531 201.892 64.9771 203.069C65.6153 204.242 66.3672 205.054 67.2326 205.504C68.1124 205.949 69.0667 205.99 70.0956 205.627Z" fill="white"/>
<path d="M105.484 202.793C103.141 203.619 100.866 203.73 98.6612 203.126C96.4704 202.516 94.5485 201.097 92.8955 198.868C91.2567 196.635 90.0819 193.506 89.3709 189.484C88.6281 185.279 88.6402 181.644 89.4072 178.579C90.1885 175.508 91.4469 173.016 93.1824 171.103C94.9323 169.185 96.8932 167.844 99.0653 167.078C100.694 166.504 102.174 166.304 103.504 166.477C104.844 166.632 106.016 167.062 107.02 167.769C108.019 168.461 108.836 169.321 109.472 170.35L109.644 170.29L106.537 152.588L118.369 148.418L126.554 194.886L114.807 199.026L113.804 193.307L113.547 193.397C113.296 194.739 112.827 196.028 112.139 197.267C111.46 198.486 110.569 199.58 109.464 200.547C108.354 201.501 107.028 202.25 105.484 202.793ZM108.154 191.635C109.24 191.252 110.115 190.59 110.78 189.649C111.439 188.694 111.872 187.529 112.079 186.155C112.28 184.767 112.227 183.227 111.92 181.536C111.618 179.811 111.148 178.411 110.512 177.334C109.87 176.242 109.098 175.511 108.195 175.138C107.302 174.746 106.313 174.741 105.227 175.124C104.14 175.507 103.272 176.166 102.622 177.102C101.967 178.024 101.546 179.176 101.359 180.56C101.181 181.923 101.243 183.468 101.546 185.193C101.849 186.917 102.306 188.33 102.92 189.432C103.542 190.514 104.3 191.251 105.193 191.643C106.081 192.02 107.068 192.018 108.154 191.635Z" fill="white"/>
<path d="M148.264 187.908C144.749 189.147 141.597 189.503 138.809 188.976C136.015 188.434 133.701 187.065 131.867 184.868C130.027 182.657 128.783 179.673 128.134 175.918C127.507 172.316 127.638 168.928 128.528 165.755C129.432 162.576 130.999 159.799 133.23 157.422C135.475 155.041 138.298 153.25 141.699 152.052C144.186 151.175 146.501 150.793 148.645 150.905C150.803 151.012 152.735 151.592 154.44 152.646C156.144 153.7 157.572 155.197 158.721 157.137C159.88 159.058 160.706 161.402 161.199 164.168L161.738 167.063L132.329 177.428L131.061 170.549L149.581 164.022C149.391 163.028 149.006 162.232 148.426 161.633C147.855 161.015 147.148 160.63 146.307 160.476C145.475 160.304 144.573 160.389 143.602 160.731C142.63 161.074 141.788 161.603 141.077 162.32C140.38 163.031 139.862 163.864 139.524 164.819C139.2 165.769 139.114 166.779 139.267 167.849L140.398 175.162C140.599 176.28 140.996 177.2 141.588 177.923C142.181 178.646 142.931 179.113 143.841 179.322C144.75 179.532 145.79 179.43 146.962 179.017C147.762 178.735 148.482 178.361 149.121 177.895C149.769 177.41 150.296 176.854 150.703 176.229C151.118 175.585 151.386 174.888 151.508 174.138L162.311 170.331C162.345 172.889 161.823 175.306 160.746 177.581C159.678 179.837 158.092 181.858 155.99 183.643C153.898 185.409 151.322 186.831 148.264 187.908Z" fill="white"/>
<path d="M187.483 188.062C184.168 189.231 181.244 189.731 178.711 189.564C176.197 189.405 174.129 188.688 172.507 187.413C170.904 186.146 169.815 184.425 169.241 182.25L180.645 178.231C180.925 178.935 181.334 179.434 181.871 179.727C182.407 180.019 183.052 180.138 183.803 180.082C184.554 180.026 185.387 179.837 186.302 179.514C187.845 178.97 189.048 178.121 189.91 176.966C190.777 175.825 190.999 174.244 190.576 172.224L189.555 166.319L189.212 166.44C189.005 167.766 188.532 169.001 187.795 170.144C187.052 171.274 186.097 172.277 184.928 173.155C183.754 174.018 182.424 174.712 180.938 175.236C178.595 176.062 176.338 176.247 174.169 175.79C172.015 175.329 170.122 174.06 168.49 171.984C166.874 169.903 165.71 166.851 164.999 162.829C164.256 158.624 164.275 154.987 165.056 151.916C165.838 148.846 167.103 146.351 168.853 144.433C170.603 142.515 172.564 141.174 174.736 140.408C176.365 139.834 177.845 139.634 179.175 139.807C180.5 139.967 181.665 140.4 182.669 141.106C183.668 141.798 184.493 142.656 185.143 143.68L185.4 143.59L184.318 137.513L196.15 133.342L202.237 168.115C202.795 171.067 202.538 173.824 201.466 176.387C200.412 178.959 198.678 181.241 196.263 183.233C193.868 185.234 190.941 186.843 187.483 188.062ZM183.721 164.809C184.807 164.426 185.688 163.778 186.362 162.866C187.032 161.939 187.475 160.803 187.691 159.458C187.903 158.098 187.855 156.572 187.548 154.881C187.231 153.161 186.754 151.763 186.118 150.686C185.476 149.595 184.711 148.861 183.823 148.483C182.93 148.091 181.94 148.086 180.854 148.469C179.768 148.852 178.9 149.511 178.25 150.447C177.595 151.369 177.174 152.521 176.987 153.905C176.794 155.274 176.857 156.818 177.174 158.538C177.491 160.257 177.958 161.651 178.575 162.719C179.187 163.772 179.928 164.483 180.797 164.851C181.66 165.206 182.635 165.191 183.721 164.809Z" fill="white"/>
<path d="M224.273 161.119C220.7 162.378 217.507 162.709 214.693 162.11C211.889 161.492 209.574 160.075 207.749 157.858C205.919 155.628 204.688 152.728 204.056 149.159C203.425 145.59 203.547 142.222 204.423 139.054C205.293 135.871 206.872 133.082 209.16 130.685C211.443 128.274 214.378 126.436 217.965 125.172C221.523 123.918 224.704 123.6 227.508 124.218C230.322 124.817 232.644 126.232 234.474 128.462C236.314 130.673 237.55 133.563 238.181 137.132C238.812 140.701 238.685 144.079 237.801 147.267C236.911 150.44 235.325 153.232 233.042 155.643C230.768 158.035 227.845 159.86 224.273 161.119ZM222.648 151.86C223.677 151.498 224.494 150.832 225.101 149.863C225.721 148.889 226.113 147.675 226.275 146.22C226.451 144.76 226.38 143.123 226.061 141.307C225.738 139.477 225.259 137.983 224.626 136.825C223.988 135.652 223.236 134.841 222.371 134.391C221.505 133.941 220.558 133.897 219.529 134.26C218.5 134.622 217.675 135.291 217.055 136.264C216.434 137.238 216.043 138.452 215.881 139.907C215.714 141.348 215.792 142.983 216.116 144.813C216.434 146.628 216.905 148.125 217.529 149.303C218.168 150.475 218.919 151.287 219.785 151.737C220.665 152.182 221.619 152.223 222.648 151.86Z" fill="white"/>
<path d="M252.15 135.197L251.959 134.107C251.533 131.623 251.373 129.575 251.48 127.963C251.601 126.346 251.949 124.962 252.523 123.812C253.093 122.647 253.833 121.511 254.743 120.403C255.532 119.45 256.236 118.551 256.854 117.707C257.486 116.857 257.956 116.025 258.263 115.21C258.57 114.395 258.647 113.565 258.494 112.719C258.356 111.964 258.063 111.361 257.614 110.908C257.166 110.456 256.624 110.173 255.99 110.059C255.355 109.945 254.681 110.014 253.966 110.266C253.195 110.538 252.514 110.979 251.926 111.588C251.337 112.197 250.904 112.904 250.625 113.709C250.347 114.514 250.296 115.351 250.474 116.22L239.499 120.088C238.934 116.753 239.164 113.804 240.189 111.242C241.209 108.666 242.794 106.485 244.943 104.699C247.088 102.899 249.561 101.505 252.362 100.518C255.391 99.4503 258.186 98.9712 260.747 99.0807C263.317 99.1709 265.463 99.9249 267.183 101.343C268.899 102.746 270.009 104.869 270.513 107.712C270.841 109.556 270.837 111.276 270.5 112.873C270.173 114.45 269.578 115.953 268.716 117.382C267.848 118.796 266.791 120.172 265.544 121.512C264.613 122.515 263.851 123.474 263.258 124.39C262.679 125.301 262.283 126.252 262.07 127.242C261.871 128.228 261.873 129.328 262.076 130.542L262.267 131.631L252.15 135.197ZM260.313 148.513C258.642 149.102 257.073 149.005 255.607 148.22C254.151 147.416 253.214 146.148 252.797 144.415C252.394 142.726 252.639 141.073 253.531 139.457C254.438 137.836 255.727 136.731 257.399 136.142C258.985 135.583 260.511 135.696 261.976 136.481C263.456 137.26 264.397 138.495 264.8 140.185C265.079 141.339 265.043 142.493 264.694 143.644C264.354 144.776 263.794 145.784 263.013 146.67C262.242 147.536 261.342 148.151 260.313 148.513Z" fill="white"/>
</g>
<rect x="7" y="7" width="314" height="314" rx="58" stroke="#442BDF" stroke-width="14"/>
<defs>
<filter id="filter0_d_276_67228" x="47.1075" y="99.0654" width="227.648" height="125.101" filterUnits="userSpaceOnUse" color-interpolation-filters="sRGB">
<feFlood flood-opacity="0" result="BackgroundImageFix"/>
<feColorMatrix in="SourceAlpha" type="matrix" values="0 0 0 0 0 0 0 0 0 0 0 0 0 0 0 0 0 0 127 0" result="hardAlpha"/>
<feOffset dy="4"/>
<feGaussianBlur stdDeviation="2"/>
<feComposite in2="hardAlpha" operator="out"/>
<feColorMatrix type="matrix" values="0 0 0 0 0 0 0 0 0 0 0 0 0 0 0 0 0 0 0.75 0"/>
<feBlend mode="normal" in2="BackgroundImageFix" result="effect1_dropShadow_276_67228"/>
<feBlend mode="normal" in="SourceGraphic" in2="effect1_dropShadow_276_67228" result="shape"/>
</filter>
</defs>
</svg>
