<svg width="64" height="65" viewBox="0 0 64 65" fill="none" xmlns="http://www.w3.org/2000/svg">
<path d="M26.2108 9.86754L25.7364 9.70943L25.7364 9.70943L26.2108 9.86754ZM24.343 15.471L24.5483 15.9269L24.748 15.8369L24.8173 15.6291L24.343 15.471ZM21.0852 17.3552L20.985 17.8451L21.2 17.8891L21.3779 17.7606L21.0852 17.3552ZM15.2943 16.1702L15.194 16.66L15.194 16.66L15.2943 16.1702ZM13.1613 17.1296L13.5943 17.3796L13.5943 17.3796L13.1613 17.1296ZM9.26944 23.8704L9.70245 24.1204L9.70245 24.1204L9.26944 23.8704ZM9.50509 26.1974L9.87919 25.8656L9.87919 25.8656L9.50509 26.1974ZM13.4268 30.6199L13.9243 30.6697L13.9461 30.4519L13.8009 30.2882L13.4268 30.6199ZM13.4268 34.3801L13.8009 34.7118L13.9461 34.5481L13.9243 34.3303L13.4268 34.3801ZM9.50508 38.8027L9.87918 39.1344L9.87918 39.1344L9.50508 38.8027ZM9.26944 41.1296L8.83643 41.3796L8.83643 41.3796L9.26944 41.1296ZM13.1613 47.8704L13.5943 47.6204L13.5943 47.6204L13.1613 47.8704ZM15.2943 48.8298L15.3945 49.3197L15.3945 49.3197L15.2943 48.8298ZM21.0852 47.6448L21.3779 47.2394L21.2 47.1109L20.985 47.1549L21.0852 47.6448ZM24.343 49.529L24.8173 49.3709L24.748 49.1631L24.5483 49.0731L24.343 49.529ZM26.2108 55.1325L25.7364 55.2906L25.7364 55.2906L26.2108 55.1325ZM37.7891 55.1325L37.3148 54.9743L37.3148 54.9743L37.7891 55.1325ZM39.657 49.529L39.4516 49.0731L39.2519 49.1631L39.1826 49.3709L39.657 49.529ZM42.9147 47.6448L43.0149 47.1549L42.7999 47.1109L42.622 47.2394L42.9147 47.6448ZM48.7056 48.8298L48.6054 49.3197L48.6054 49.3197L48.7056 48.8298ZM50.8387 47.8704L51.2717 48.1204L51.2717 48.1204L50.8387 47.8704ZM54.7305 41.1296L54.2975 40.8796L54.2975 40.8796L54.7305 41.1296ZM54.4948 38.8027L54.8689 38.4709L54.8689 38.4709L54.4948 38.8027ZM50.5731 34.3801L50.0756 34.3303L50.0538 34.5481L50.199 34.7118L50.5731 34.3801ZM50.5731 30.6199L50.199 30.2882L50.0538 30.4519L50.0756 30.6697L50.5731 30.6199ZM54.4948 26.1973L54.1207 25.8656L54.1207 25.8656L54.4948 26.1973ZM54.7305 23.8704L54.2975 24.1204L54.2975 24.1204L54.7305 23.8704ZM50.8387 17.1296L51.2717 16.8796L51.2717 16.8796L50.8387 17.1296ZM48.7056 16.1702L48.8059 16.66L48.8059 16.66L48.7056 16.1702ZM42.9147 17.3552L42.622 17.7606L42.7999 17.8891L43.0149 17.8451L42.9147 17.3552ZM39.657 15.471L39.1826 15.6291L39.2519 15.8369L39.4516 15.9269L39.657 15.471ZM37.7891 9.86754L37.3148 10.0257L37.3148 10.0257L37.7891 9.86754ZM26.6851 10.0257C26.8893 9.41315 27.4625 9 28.1081 9V8C27.0321 8 26.0767 8.68857 25.7364 9.70943L26.6851 10.0257ZM24.8173 15.6291L26.6851 10.0257L25.7364 9.70943L23.8686 15.3129L24.8173 15.6291ZM21.3779 17.7606C22.365 17.048 23.4264 16.4321 24.5483 15.9269L24.1376 15.0151C22.9537 15.5483 21.8338 16.1981 20.7925 16.9498L21.3779 17.7606ZM15.194 16.66L20.985 17.8451L21.1855 16.8654L15.3945 15.6803L15.194 16.66ZM13.5943 17.3796C13.9171 16.8204 14.5615 16.5306 15.194 16.66L15.3945 15.6803C14.3403 15.4646 13.2663 15.9477 12.7282 16.8796L13.5943 17.3796ZM9.70245 24.1204L13.5943 17.3796L12.7282 16.8796L8.83643 23.6204L9.70245 24.1204ZM9.87919 25.8656C9.45082 25.3825 9.37963 24.6796 9.70245 24.1204L8.83643 23.6204C8.29839 24.5523 8.41704 25.724 9.13098 26.5291L9.87919 25.8656ZM13.8009 30.2882L9.87919 25.8656L9.13098 26.5291L13.0527 30.9516L13.8009 30.2882ZM13.8333 32.5C13.8333 31.8821 13.8641 31.2715 13.9243 30.6697L12.9293 30.5702C12.8658 31.205 12.8333 31.8488 12.8333 32.5H13.8333ZM13.9243 34.3303C13.8641 33.7285 13.8333 33.1179 13.8333 32.5H12.8333C12.8333 33.1512 12.8658 33.795 12.9293 34.4298L13.9243 34.3303ZM9.87918 39.1344L13.8009 34.7118L13.0527 34.0484L9.13098 38.4709L9.87918 39.1344ZM9.70245 40.8796C9.37963 40.3204 9.45082 39.6175 9.87918 39.1344L9.13098 38.4709C8.41704 39.276 8.29839 40.4477 8.83643 41.3796L9.70245 40.8796ZM13.5943 47.6204L9.70245 40.8796L8.83643 41.3796L12.7282 48.1204L13.5943 47.6204ZM15.194 48.34C14.5615 48.4694 13.9171 48.1796 13.5943 47.6204L12.7282 48.1204C13.2663 49.0523 14.3403 49.5354 15.3945 49.3197L15.194 48.34ZM20.985 47.1549L15.194 48.34L15.3945 49.3197L21.1855 48.1346L20.985 47.1549ZM24.5483 49.0731C23.4264 48.5679 22.365 47.952 21.3779 47.2394L20.7925 48.0502C21.8338 48.8019 22.9537 49.4517 24.1376 49.9849L24.5483 49.0731ZM26.6851 54.9743L24.8173 49.3709L23.8686 49.6871L25.7364 55.2906L26.6851 54.9743ZM28.1081 56C27.4625 56 26.8893 55.5869 26.6851 54.9743L25.7364 55.2906C26.0767 56.3114 27.0321 57 28.1081 57V56ZM35.8918 56H28.1081V57H35.8918V56ZM37.3148 54.9743C37.1106 55.5869 36.5374 56 35.8918 56V57C36.9678 57 37.9232 56.3114 38.2635 55.2906L37.3148 54.9743ZM39.1826 49.3709L37.3148 54.9743L38.2635 55.2906L40.1313 49.6871L39.1826 49.3709ZM42.622 47.2394C41.6349 47.952 40.5735 48.5679 39.4516 49.0731L39.8623 49.9849C41.0462 49.4517 42.1661 48.8019 43.2074 48.0502L42.622 47.2394ZM48.8059 48.34L43.0149 47.1549L42.8145 48.1346L48.6054 49.3197L48.8059 48.34ZM50.4056 47.6204C50.0828 48.1796 49.4384 48.4694 48.8059 48.34L48.6054 49.3197C49.6596 49.5354 50.7336 49.0523 51.2717 48.1204L50.4056 47.6204ZM54.2975 40.8796L50.4056 47.6204L51.2717 48.1204L55.1635 41.3796L54.2975 40.8796ZM54.1207 39.1344C54.5491 39.6175 54.6203 40.3204 54.2975 40.8796L55.1635 41.3796C55.7015 40.4477 55.5829 39.276 54.8689 38.4709L54.1207 39.1344ZM50.199 34.7118L54.1207 39.1344L54.8689 38.4709L50.9472 34.0484L50.199 34.7118ZM50.1666 32.5C50.1666 33.1179 50.1358 33.7285 50.0756 34.3303L51.0706 34.4299C51.1341 33.795 51.1666 33.1512 51.1666 32.5H50.1666ZM50.0756 30.6697C50.1358 31.2715 50.1666 31.8821 50.1666 32.5H51.1666C51.1666 31.8488 51.1341 31.205 51.0706 30.5701L50.0756 30.6697ZM54.1207 25.8656L50.199 30.2882L50.9472 30.9516L54.8689 26.5291L54.1207 25.8656ZM54.2975 24.1204C54.6203 24.6796 54.5491 25.3825 54.1207 25.8656L54.8689 26.5291C55.5829 25.724 55.7015 24.5523 55.1635 23.6204L54.2975 24.1204ZM50.4056 17.3796L54.2975 24.1204L55.1635 23.6204L51.2717 16.8796L50.4056 17.3796ZM48.8059 16.66C49.4384 16.5306 50.0828 16.8204 50.4056 17.3796L51.2717 16.8796C50.7336 15.9477 49.6596 15.4646 48.6054 15.6803L48.8059 16.66ZM43.0149 17.8451L48.8059 16.66L48.6054 15.6803L42.8145 16.8654L43.0149 17.8451ZM39.4516 15.9269C40.5735 16.4321 41.6349 17.048 42.622 17.7606L43.2074 16.9498C42.1661 16.1981 41.0462 15.5483 39.8623 15.0151L39.4516 15.9269ZM37.3148 10.0257L39.1826 15.6291L40.1313 15.3129L38.2635 9.70943L37.3148 10.0257ZM35.8918 9C36.5374 9 37.1106 9.41315 37.3148 10.0257L38.2635 9.70943C37.9232 8.68858 36.9678 8 35.8918 8V9ZM28.1081 9H35.8918V8H28.1081V9Z" fill="black"/>
<path fill-rule="evenodd" clip-rule="evenodd" d="M32.0002 35.1667C33.4729 35.1667 34.6668 33.9728 34.6668 32.5C34.6668 31.0273 33.4729 29.8334 32.0002 29.8334C30.5274 29.8334 29.3335 31.0273 29.3335 32.5C29.3335 33.9728 30.5274 35.1667 32.0002 35.1667Z" stroke="black"/>
</svg>
